# xmcd CD database file
#
# Track frame offsets:
#	150
#	16878
#	36492
#	59085
#	77251
#	101081
#	125862
#	173376
#	199649
#	218517
#
# Disc length: 3324 seconds
#
# Revision: 0
# Processed by: cddbd v1.5.2PL0 Copyright (c) Steve Scherf et al.
# Submitted via: CDex 1.70beta2
#
DISCID=810cfa0a
DTITLE=Larry Brown - peace
DYEAR=2007
DGENRE=Jazz
TTITLE0=How Deep Is The Ocean?
TTITLE1=Straight, No Chaser
TTITLE2=Emily
TTITLE3=Spring Is Here
TTITLE4=My One And Only Love
TTITLE5=Compensation
TTITLE6=Spring Can Really Hang You Up The Most
TTITLE7=Letter To Evan
TTITLE8=Peace
TTITLE9=Teh Days Of Wine And Roses
EXTD=YEAR: 2007
EXTT0=
EXTT1=
EXTT2=
EXTT3=
EXTT4=
EXTT5=
EXTT6=
EXTT7=
EXTT8=
EXTT9=
PLAYORDER=
